Input #0, mov,mp4,m4a,3gp,3g2,mj2, from 'renders/video.mp4':
  Metadata:
    major_brand     : isom
    minor_version   : 512
    compatible_brands: isomiso2avc1mp41
    encoder         : Lavf62.12.101
  Duration: 00:13:42.87, start: 0.000000, bitrate: 643 kb/s
  Stream #0:0[0x1](und): Video: h264 (High) (avc1 / 0x31637661), yuv420p(tv, bt709, progressive), 1920x1080 [SAR 1:1 DAR 16:9], 455 kb/s, 30 fps, 30 tbr, 15360 tbn (default)
    Metadata:
      handler_name    : VideoHandler
      encoder         : Lavc62.28.101 libx264
  Stream #0:1[0x2](und): Audio: aac (LC) (mp4a / 0x6134706D), 48000 Hz, stereo, fltp, 181 kb/s (default)
    Metadata:
      handler_name    : SoundHandler
Stream mapping:
  Stream #0:0 -> #0:0 (h264 (native) -> wrapped_avframe (native))
  Stream #0:1 -> #0:1 (aac (native) -> pcm_s16le (native))
Press [q] to stop, [?] for help
Output #0, null, to 'pipe:':
  Metadata:
    major_brand     : isom
    minor_version   : 512
    compatible_brands: isomiso2avc1mp41
    encoder         : Lavf62.12.101
  Stream #0:0(und): Video: wrapped_avframe, yuv420p(tv, bt709, progressive), 1920x1080 [SAR 1:1 DAR 16:9], q=2-31, 200 kb/s, 30 fps, 30 tbn (default)
    Metadata:
      encoder         : Lavc62.28.101 wrapped_avframe
      handler_name    : VideoHandler
  Stream #0:1(und): Audio: pcm_s16le, 48000 Hz, stereo, s16, 1536 kb/s (default)
    Metadata:
      encoder         : Lavc62.28.101 pcm_s16le
      handler_name    : SoundHandler
frame= 1299 fps=0.0 q=-0.0 size=N/A time=00:00:43.30 bitrate=N/A speed=85.7x elapsed=0:00:00.50frame= 3054 fps=3023 q=-0.0 size=N/A time=00:01:41.80 bitrate=N/A speed= 101x elapsed=0:00:01.01frame= 4709 fps=3108 q=-0.0 size=N/A time=00:02:36.96 bitrate=N/A speed= 104x elapsed=0:00:01.51frame= 6523 fps=3229 q=-0.0 size=N/A time=00:03:37.43 bitrate=N/A speed= 108x elapsed=0:00:02.02frame= 8000 fps=3168 q=-0.0 size=N/A time=00:04:26.66 bitrate=N/A speed= 106x elapsed=0:00:02.52frame= 9905 fps=3268 q=-0.0 size=N/A time=00:05:30.16 bitrate=N/A speed= 109x elapsed=0:00:03.03frame=11577 fps=3274 q=-0.0 size=N/A time=00:06:25.90 bitrate=N/A speed= 109x elapsed=0:00:03.53frame=13368 fps=3308 q=-0.0 size=N/A time=00:07:25.60 bitrate=N/A speed= 110x elapsed=0:00:04.04frame=15075 fps=3316 q=-0.0 size=N/A time=00:08:22.50 bitrate=N/A speed= 111x elapsed=0:00:04.54frame=16916 fps=3351 q=-0.0 size=N/A time=00:09:23.86 bitrate=N/A speed= 112x elapsed=0:00:05.04frame=18304 fps=3296 q=-0.0 size=N/A time=00:10:10.13 bitrate=N/A speed= 110x elapsed=0:00:05.55frame=19750 fps=3260 q=-0.0 size=N/A time=00:10:58.33 bitrate=N/A speed= 109x elapsed=0:00:06.05frame=21555 fps=3285 q=-0.0 size=N/A time=00:11:58.50 bitrate=N/A speed= 109x elapsed=0:00:06.56frame=23750 fps=3360 q=-0.0 size=N/A time=00:13:11.66 bitrate=N/A speed= 112x elapsed=0:00:07.06[out#0/null @ 0xafc858300] video:10222KiB audio:154288KiB subtitle:0KiB other streams:0KiB global headers:0KiB muxing overhead: unknown
frame=24686 fps=3405 q=-0.0 Lsize=N/A time=00:13:42.86 bitrate=N/A speed= 113x elapsed=0:00:07.25
